<svg width="1067" height="1001" viewBox="0 0 1067 1001" fill="none" xmlns="http://www.w3.org/2000/svg">
<path d="M1061.96 405.696C1059.82 393.126 1057.2 380.975 1054.54 369.714C1040.13 305.189 1013.25 243.974 975.345 189.388L953.297 157.565L966.916 193.639C984.268 239.752 993.838 288.335 995.25 337.471C994.44 351.957 993.345 365.134 991.916 377.798C986.414 432.906 971.726 486.752 948.44 537.189C946.773 540.647 945.059 544.059 943.345 547.47C922.233 589.02 893.126 626.167 857.63 656.863C807.869 698.946 748.002 727.893 683.678 740.975V659.713C716.238 646.224 746.773 628.444 774.44 606.863C818.873 569.858 853.937 523.23 876.867 470.655C899.798 418.08 909.967 360.996 906.573 303.905C903.179 246.815 886.315 191.278 857.311 141.675C828.307 92.0733 787.956 49.7625 739.44 18.079L713.059 0.788396L733.154 24.9012C752.745 48.3673 768.226 74.8666 778.964 103.314C781.773 110.79 784.202 118.312 786.25 125.649C790.6 141.429 793.438 157.573 794.726 173.872V174.153C795.297 181.302 795.535 188.639 795.44 195.975V197.846C795.44 199.108 795.44 200.367 795.44 201.723C795.107 210.964 794.281 220.183 792.964 229.34L791.678 237.518C781.108 296.636 750.15 350.392 703.992 389.774C657.834 429.156 599.283 451.77 538.154 453.826H528.631C467.553 451.695 409.075 429.041 362.984 389.656C316.893 350.271 285.988 296.546 275.44 237.472L274.154 229.294C272.767 220.079 271.877 210.797 271.488 201.49C271.488 200.135 271.488 198.873 271.488 197.611V195.742C271.488 188.406 271.488 181.07 272.202 173.92V173.64C273.49 157.341 276.327 141.197 280.678 125.416C282.726 118.08 285.154 110.555 287.964 103.079C298.702 74.6316 314.182 48.1346 333.773 24.6685L353.869 0.555664L327.488 17.8463C278.972 49.5298 238.621 91.8406 209.617 141.443C180.612 191.045 163.748 246.582 160.355 303.673C156.961 360.764 167.13 417.848 190.06 470.423C212.991 522.998 248.055 569.626 292.488 606.63C320.155 628.211 350.69 645.989 383.25 659.478V740.74C318.926 727.658 259.059 698.711 209.297 656.628C173.909 625.921 144.901 588.792 123.869 547.283C122.154 543.872 120.44 540.46 118.773 537.002C95.4874 486.565 80.7999 432.719 75.2973 377.611C73.8688 364.947 72.7735 351.77 71.964 337.284C73.4521 288.134 83.1027 239.551 100.535 193.451L114.154 157.378L92.1069 189.201C54.0286 243.811 26.9989 305.093 12.4878 369.714C9.72591 380.975 7.2021 393.079 5.05924 405.696C-5.34947 479.764 0.535217 555.161 22.3171 626.809C44.0989 698.458 81.2723 764.695 131.334 821.06C181.396 877.426 243.183 922.609 312.537 953.571C381.89 984.533 457.199 1000.56 533.392 1000.56C609.586 1000.56 684.895 984.533 754.248 953.571C823.601 922.609 885.389 877.426 935.451 821.06C985.513 764.695 1022.69 698.458 1044.47 626.809C1066.25 555.161 1072.13 479.764 1061.73 405.696H1061.96ZM249.916 366.022C252.964 371.957 256.202 377.751 259.44 383.358C287.324 430.416 327.304 469.469 375.386 496.614C423.469 523.759 477.969 538.045 533.44 538.045C588.911 538.045 643.412 523.759 691.494 496.614C739.576 469.469 779.557 430.416 807.44 383.358C810.869 377.751 814.107 371.957 816.964 366.022C811.377 409.668 795.524 451.442 770.656 488.042C745.789 524.642 712.588 555.065 673.678 576.909L672.678 577.518C630.139 601.104 582.109 613.498 533.25 613.498C484.39 613.498 436.36 601.104 393.821 577.518L392.821 576.909C353.938 555.049 320.765 524.618 295.923 488.019C271.081 451.42 255.249 409.655 249.678 366.022H249.916ZM341.345 856.675L340.821 857.049L340.392 857.33L339.345 857.937L308.916 876.861C203.25 825.459 132.726 739.853 117.583 645.601C122.027 652.33 126.789 658.873 131.869 665.228C189.012 739.994 279.821 795.04 384.25 822.003C381.837 824.526 379.361 827.002 376.821 829.432C366.303 839.418 354.803 848.355 342.488 856.114L341.345 856.675ZM589.345 932.235C570.891 934.712 552.302 936.085 533.678 936.347C515.055 936.085 496.465 934.712 478.012 932.235C439.9 927.204 402.618 917.324 367.107 902.843C368.154 902.188 369.202 901.581 370.202 900.88C384.932 891.626 398.683 880.951 411.25 869.012C420.287 860.406 428.704 851.194 436.44 841.443L438.059 839.478C448.83 825.363 454.615 808.187 454.535 790.554V684.246L456.678 684.62C507.602 693.967 559.85 693.967 610.773 684.62L612.916 684.246V790.273C612.837 807.907 618.622 825.085 629.393 839.2L631.012 841.162C638.747 850.913 647.164 860.125 656.202 868.731C668.768 880.67 682.519 891.345 697.25 900.6C698.25 901.301 699.297 901.908 700.345 902.562C664.732 917.102 627.336 927.015 589.107 932.048L589.345 932.235ZM758.345 876.861L727.916 857.937L726.869 857.33L726.44 857.049L725.916 856.675L724.964 856.114C712.649 848.355 701.148 839.418 690.631 829.432C688.123 827.002 685.646 824.526 683.202 822.003C787.631 795.04 878.44 739.901 935.583 665.228C940.535 658.998 945.297 652.455 949.869 645.601C934.297 739.666 863.773 825.415 758.107 876.676L758.345 876.861Z" fill="#0079FF"/>
</svg>
