<svg width="1067" height="1001" viewBox="0 0 1067 1001" fill="none" xmlns="http://www.w3.org/2000/svg">
<g clip-path="url(#clip0_4969_31523)">
<path d="M1061.96 405.696C1059.82 393.126 1057.2 380.975 1054.54 369.714C1040.13 305.189 1013.25 243.974 975.344 189.388L953.296 157.565L966.915 193.639C984.267 239.752 993.837 288.335 995.249 337.471C994.439 351.957 993.344 365.134 991.915 377.798C986.413 432.906 971.725 486.752 948.439 537.189C946.772 540.647 945.058 544.059 943.344 547.47C922.232 589.02 893.125 626.167 857.629 656.863C807.868 698.946 748.001 727.893 683.677 740.975V659.713C716.237 646.224 746.772 628.444 774.439 606.863C818.872 569.858 853.936 523.23 876.866 470.655C899.797 418.08 909.966 360.996 906.572 303.905C903.178 246.815 886.314 191.278 857.31 141.675C828.306 92.0733 787.955 49.7625 739.439 18.079L713.058 0.788396L733.153 24.9012C752.744 48.3673 768.225 74.8666 778.963 103.314C781.772 110.79 784.201 118.312 786.249 125.649C790.599 141.429 793.437 157.573 794.725 173.872V174.153C795.296 181.302 795.534 188.639 795.439 195.975V197.846C795.439 199.108 795.439 200.367 795.439 201.723C795.106 210.964 794.28 220.183 792.963 229.34L791.677 237.518C781.107 296.636 750.149 350.392 703.991 389.774C657.833 429.156 599.282 451.77 538.153 453.826H528.63C467.552 451.695 409.074 429.041 362.983 389.656C316.892 350.271 285.987 296.546 275.439 237.472L274.153 229.294C272.766 220.079 271.876 210.797 271.487 201.49C271.487 200.135 271.487 198.873 271.487 197.611V195.742C271.487 188.406 271.487 181.07 272.201 173.92V173.64C273.489 157.341 276.326 141.197 280.677 125.416C282.725 118.08 285.153 110.555 287.963 103.079C298.701 74.6316 314.181 48.1346 333.772 24.6685L353.868 0.555664L327.487 17.8463C278.971 49.5298 238.62 91.8406 209.616 141.443C180.611 191.045 163.747 246.582 160.354 303.673C156.96 360.764 167.129 417.848 190.059 470.423C212.99 522.998 248.054 569.626 292.487 606.63C320.154 628.211 350.689 645.989 383.249 659.478V740.74C318.925 727.658 259.058 698.711 209.296 656.628C173.908 625.921 144.9 588.792 123.868 547.283C122.153 543.872 120.439 540.46 118.772 537.002C95.4868 486.565 80.7993 432.719 75.2967 377.611C73.8682 364.947 72.7729 351.77 71.9634 337.284C73.4515 288.134 83.1021 239.551 100.534 193.451L114.153 157.378L92.1063 189.201C54.028 243.811 26.9983 305.093 12.4872 369.714C9.7253 380.975 7.20149 393.079 5.05863 405.696C-5.35008 479.764 0.534605 555.161 22.3165 626.809C44.0983 698.458 81.2717 764.695 131.333 821.06C181.395 877.426 243.182 922.609 312.536 953.571C381.889 984.533 457.198 1000.56 533.391 1000.56C609.585 1000.56 684.894 984.533 754.247 953.571C823.6 922.609 885.388 877.426 935.45 821.06C985.512 764.695 1022.69 698.458 1044.47 626.809C1066.25 555.161 1072.13 479.764 1061.73 405.696H1061.96ZM249.915 366.022C252.963 371.957 256.201 377.751 259.439 383.358C287.323 430.416 327.303 469.469 375.385 496.614C423.468 523.759 477.968 538.045 533.439 538.045C588.91 538.045 643.411 523.759 691.493 496.614C739.575 469.469 779.556 430.416 807.439 383.358C810.868 377.751 814.106 371.957 816.963 366.022C811.376 409.668 795.523 451.442 770.655 488.042C745.788 524.642 712.587 555.065 673.677 576.909L672.677 577.518C630.138 601.104 582.108 613.498 533.249 613.498C484.389 613.498 436.359 601.104 393.82 577.518L392.82 576.909C353.937 555.049 320.764 524.618 295.922 488.019C271.08 451.42 255.248 409.655 249.677 366.022H249.915ZM341.344 856.675L340.82 857.049L340.391 857.33L339.344 857.937L308.915 876.861C203.249 825.459 132.725 739.853 117.582 645.601C122.026 652.33 126.788 658.873 131.868 665.228C189.011 739.994 279.82 795.04 384.249 822.003C381.836 824.526 379.36 827.002 376.82 829.432C366.302 839.418 354.802 848.355 342.487 856.114L341.344 856.675ZM589.344 932.235C570.89 934.712 552.301 936.085 533.677 936.347C515.054 936.085 496.464 934.712 478.011 932.235C439.899 927.204 402.617 917.324 367.106 902.843C368.153 902.188 369.201 901.581 370.201 900.88C384.931 891.626 398.682 880.951 411.249 869.012C420.286 860.406 428.703 851.194 436.439 841.443L438.058 839.478C448.829 825.363 454.614 808.187 454.534 790.554V684.246L456.677 684.62C507.601 693.967 559.849 693.967 610.772 684.62L612.915 684.246V790.273C612.836 807.907 618.621 825.085 629.392 839.2L631.011 841.162C638.746 850.913 647.163 860.125 656.201 868.731C668.767 880.67 682.518 891.345 697.249 900.6C698.249 901.301 699.296 901.908 700.344 902.562C664.731 917.102 627.335 927.015 589.106 932.048L589.344 932.235ZM758.344 876.861L727.915 857.937L726.868 857.33L726.439 857.049L725.915 856.675L724.963 856.114C712.648 848.355 701.147 839.418 690.63 829.432C688.122 827.002 685.645 824.526 683.201 822.003C787.63 795.04 878.439 739.901 935.582 665.228C940.534 658.998 945.296 652.455 949.868 645.601C934.296 739.666 863.772 825.415 758.106 876.676L758.344 876.861Z" fill="#1C172C"/>
</g>
<defs>
<clipPath id="clip0_4969_31523">
<rect width="1067" height="1001" fill="white"/>
</clipPath>
</defs>
</svg>
